<svg width="211" height="39" viewBox="0 0 211 39" fill="none" xmlns="http://www.w3.org/2000/svg">
<path d="M3.24219 1.625H8.20312L15.5078 22.5039L22.8125 1.625H27.7734L17.5 30.0625H13.5156L3.24219 1.625ZM0.566406 1.625H5.50781L6.40625 21.9766V30.0625H0.566406V1.625ZM25.5078 1.625H30.4688V30.0625H24.6094V21.9766L25.5078 1.625ZM44.9805 30.4531C43.3398 30.4531 41.8685 30.1927 40.5664 29.6719C39.2643 29.138 38.1576 28.4023 37.2461 27.4648C36.3477 26.5273 35.6576 25.4401 35.1758 24.2031C34.694 22.9531 34.4531 21.625 34.4531 20.2188V19.4375C34.4531 17.8359 34.681 16.3711 35.1367 15.043C35.5924 13.7148 36.2435 12.5625 37.0898 11.5859C37.9492 10.6094 38.9909 9.86068 40.2148 9.33984C41.4388 8.80599 42.819 8.53906 44.3555 8.53906C45.8529 8.53906 47.181 8.78646 48.3398 9.28125C49.4987 9.77604 50.4688 10.4792 51.25 11.3906C52.0443 12.3021 52.6432 13.3958 53.0469 14.6719C53.4505 15.9349 53.6523 17.3411 53.6523 18.8906V21.2344H36.8555V17.4844H48.125V17.0547C48.125 16.2734 47.9818 15.5768 47.6953 14.9648C47.4219 14.3398 47.0052 13.8451 46.4453 13.4805C45.8854 13.1159 45.1693 12.9336 44.2969 12.9336C43.5547 12.9336 42.9167 13.0964 42.3828 13.4219C41.849 13.7474 41.4128 14.2031 41.0742 14.7891C40.7487 15.375 40.5013 16.0651 40.332 16.8594C40.1758 17.6406 40.0977 18.5 40.0977 19.4375V20.2188C40.0977 21.0651 40.2148 21.8464 40.4492 22.5625C40.6966 23.2786 41.0417 23.8971 41.4844 24.418C41.9401 24.9388 42.487 25.3424 43.125 25.6289C43.776 25.9154 44.5117 26.0586 45.332 26.0586C46.3477 26.0586 47.2917 25.8633 48.1641 25.4727C49.0495 25.069 49.8112 24.4635 50.4492 23.6562L53.1836 26.625C52.7409 27.263 52.1354 27.875 51.3672 28.4609C50.612 29.0469 49.7005 29.5286 48.6328 29.9062C47.5651 30.2708 46.3477 30.4531 44.9805 30.4531ZM62.4805 13.3047V30.0625H56.8359V8.92969H62.1289L62.4805 13.3047ZM61.6992 18.7539H60.1367C60.1367 17.2826 60.3125 15.9284 60.6641 14.6914C61.0286 13.4414 61.556 12.3607 62.2461 11.4492C62.9492 10.5247 63.8151 9.80859 64.8438 9.30078C65.8724 8.79297 67.0638 8.53906 68.418 8.53906C69.3555 8.53906 70.2148 8.68229 70.9961 8.96875C71.7773 9.24219 72.4479 9.67839 73.0078 10.2773C73.5807 10.8633 74.0234 11.6315 74.3359 12.582C74.6484 13.5195 74.8047 14.6458 74.8047 15.9609V30.0625H69.1797V16.5859C69.1797 15.6224 69.0495 14.8802 68.7891 14.3594C68.5286 13.8385 68.1576 13.474 67.6758 13.2656C67.207 13.0573 66.6406 12.9531 65.9766 12.9531C65.2474 12.9531 64.6094 13.1029 64.0625 13.4023C63.5286 13.7018 63.0859 14.1185 62.7344 14.6523C62.3828 15.1732 62.1224 15.7852 61.9531 16.4883C61.7839 17.1914 61.6992 17.9466 61.6992 18.7539ZM74.2773 18.1094L72.2656 18.3633C72.2656 16.9831 72.4349 15.7005 72.7734 14.5156C73.125 13.3307 73.6393 12.2891 74.3164 11.3906C75.0065 10.4922 75.8594 9.79557 76.875 9.30078C77.8906 8.79297 79.0625 8.53906 80.3906 8.53906C81.4062 8.53906 82.3307 8.6888 83.1641 8.98828C83.9974 9.27474 84.707 9.73698 85.293 10.375C85.8919 11 86.3477 11.8203 86.6602 12.8359C86.9857 13.8516 87.1484 15.0951 87.1484 16.5664V30.0625H81.5039V16.5664C81.5039 15.5898 81.3737 14.8477 81.1133 14.3398C80.8659 13.819 80.5013 13.4609 80.0195 13.2656C79.5508 13.0573 78.9909 12.9531 78.3398 12.9531C77.6628 12.9531 77.0703 13.0898 76.5625 13.3633C76.0547 13.6237 75.6315 13.9883 75.293 14.457C74.9544 14.9258 74.7005 15.4727 74.5312 16.0977C74.362 16.7096 74.2773 17.3802 74.2773 18.1094ZM90.6055 19.7109V19.3008C90.6055 17.7513 90.8268 16.3255 91.2695 15.0234C91.7122 13.7083 92.3568 12.569 93.2031 11.6055C94.0495 10.6419 95.0911 9.89323 96.3281 9.35938C97.5651 8.8125 98.9844 8.53906 100.586 8.53906C102.188 8.53906 103.613 8.8125 104.863 9.35938C106.113 9.89323 107.161 10.6419 108.008 11.6055C108.867 12.569 109.518 13.7083 109.961 15.0234C110.404 16.3255 110.625 17.7513 110.625 19.3008V19.7109C110.625 21.2474 110.404 22.6732 109.961 23.9883C109.518 25.2904 108.867 26.4297 108.008 27.4062C107.161 28.3698 106.12 29.1185 104.883 29.6523C103.646 30.1862 102.227 30.4531 100.625 30.4531C99.0234 30.4531 97.5977 30.1862 96.3477 29.6523C95.1107 29.1185 94.0625 28.3698 93.2031 27.4062C92.3568 26.4297 91.7122 25.2904 91.2695 23.9883C90.8268 22.6732 90.6055 21.2474 90.6055 19.7109ZM96.2305 19.3008V19.7109C96.2305 20.5964 96.3086 21.4232 96.4648 22.1914C96.6211 22.9596 96.8685 23.6367 97.207 24.2227C97.5586 24.7956 98.0143 25.2448 98.5742 25.5703C99.1341 25.8958 99.8177 26.0586 100.625 26.0586C101.406 26.0586 102.077 25.8958 102.637 25.5703C103.197 25.2448 103.646 24.7956 103.984 24.2227C104.323 23.6367 104.57 22.9596 104.727 22.1914C104.896 21.4232 104.98 20.5964 104.98 19.7109V19.3008C104.98 18.4414 104.896 17.6341 104.727 16.8789C104.57 16.1107 104.316 15.4336 103.965 14.8477C103.626 14.2487 103.177 13.7799 102.617 13.4414C102.057 13.1029 101.38 12.9336 100.586 12.9336C99.7917 12.9336 99.1146 13.1029 98.5547 13.4414C98.0078 13.7799 97.5586 14.2487 97.207 14.8477C96.8685 15.4336 96.6211 16.1107 96.4648 16.8789C96.3086 17.6341 96.2305 18.4414 96.2305 19.3008Z" fill="#FF2D55"/>
<path d="M132.715 25.4922V30.0625H118.398V25.4922H132.715ZM120.293 1.625V30.0625H114.434V1.625H120.293ZM141.66 8.92969V30.0625H136.016V8.92969H141.66ZM135.664 3.42188C135.664 2.60156 135.951 1.92448 136.523 1.39062C137.096 0.856771 137.865 0.589844 138.828 0.589844C139.779 0.589844 140.54 0.856771 141.113 1.39062C141.699 1.92448 141.992 2.60156 141.992 3.42188C141.992 4.24219 141.699 4.91927 141.113 5.45312C140.54 5.98698 139.779 6.25391 138.828 6.25391C137.865 6.25391 137.096 5.98698 136.523 5.45312C135.951 4.91927 135.664 4.24219 135.664 3.42188ZM151.816 13.4414V30.0625H146.191V8.92969H151.465L151.816 13.4414ZM150.996 18.7539H149.473C149.473 17.1914 149.674 15.7852 150.078 14.5352C150.482 13.2721 151.048 12.1979 151.777 11.3125C152.507 10.4141 153.372 9.73047 154.375 9.26172C155.391 8.77995 156.523 8.53906 157.773 8.53906C158.763 8.53906 159.668 8.68229 160.488 8.96875C161.309 9.25521 162.012 9.71094 162.598 10.3359C163.197 10.9609 163.652 11.7878 163.965 12.8164C164.29 13.8451 164.453 15.1016 164.453 16.5859V30.0625H158.789V16.5664C158.789 15.6289 158.659 14.8997 158.398 14.3789C158.138 13.8581 157.754 13.4935 157.246 13.2852C156.751 13.0638 156.139 12.9531 155.41 12.9531C154.655 12.9531 153.997 13.1029 153.438 13.4023C152.891 13.7018 152.435 14.1185 152.07 14.6523C151.719 15.1732 151.452 15.7852 151.27 16.4883C151.087 17.1914 150.996 17.9466 150.996 18.7539ZM182.109 8.92969H187.207V29.3594C187.207 31.2865 186.777 32.9206 185.918 34.2617C185.072 35.6159 183.887 36.638 182.363 37.3281C180.84 38.0312 179.069 38.3828 177.051 38.3828C176.165 38.3828 175.228 38.2656 174.238 38.0312C173.262 37.7969 172.324 37.4323 171.426 36.9375C170.54 36.4427 169.798 35.8177 169.199 35.0625L171.68 31.7422C172.331 32.4974 173.086 33.0833 173.945 33.5C174.805 33.9297 175.755 34.1445 176.797 34.1445C177.812 34.1445 178.672 33.9557 179.375 33.5781C180.078 33.2135 180.618 32.6732 180.996 31.957C181.374 31.2539 181.562 30.401 181.562 29.3984V13.8125L182.109 8.92969ZM167.891 19.75V19.3398C167.891 17.7253 168.086 16.2604 168.477 14.9453C168.88 13.6172 169.447 12.4779 170.176 11.5273C170.918 10.5768 171.816 9.84115 172.871 9.32031C173.926 8.79948 175.117 8.53906 176.445 8.53906C177.852 8.53906 179.03 8.79948 179.98 9.32031C180.931 9.84115 181.712 10.5833 182.324 11.5469C182.936 12.4974 183.411 13.6237 183.75 14.9258C184.102 16.2148 184.375 17.6276 184.57 19.1641V20.0625C184.375 21.5339 184.082 22.901 183.691 24.1641C183.301 25.4271 182.786 26.5339 182.148 27.4844C181.51 28.4219 180.716 29.151 179.766 29.6719C178.828 30.1927 177.708 30.4531 176.406 30.4531C175.104 30.4531 173.926 30.1862 172.871 29.6523C171.829 29.1185 170.938 28.3698 170.195 27.4062C169.453 26.4427 168.88 25.3099 168.477 24.0078C168.086 22.7057 167.891 21.2865 167.891 19.75ZM173.516 19.3398V19.75C173.516 20.6224 173.6 21.4362 173.77 22.1914C173.939 22.9466 174.199 23.6172 174.551 24.2031C174.915 24.776 175.365 25.2253 175.898 25.5508C176.445 25.8633 177.09 26.0195 177.832 26.0195C178.861 26.0195 179.701 25.8047 180.352 25.375C181.003 24.9323 181.491 24.3268 181.816 23.5586C182.142 22.7904 182.331 21.9049 182.383 20.9023V18.3438C182.357 17.5234 182.246 16.7878 182.051 16.1367C181.855 15.4727 181.582 14.9062 181.23 14.4375C180.879 13.9688 180.423 13.6042 179.863 13.3438C179.303 13.0833 178.639 12.9531 177.871 12.9531C177.129 12.9531 176.484 13.1224 175.938 13.4609C175.404 13.7865 174.954 14.2357 174.59 14.8086C174.238 15.3815 173.971 16.0586 173.789 16.8398C173.607 17.6081 173.516 18.4414 173.516 19.3398ZM190.684 19.7109V19.3008C190.684 17.7513 190.905 16.3255 191.348 15.0234C191.79 13.7083 192.435 12.569 193.281 11.6055C194.128 10.6419 195.169 9.89323 196.406 9.35938C197.643 8.8125 199.062 8.53906 200.664 8.53906C202.266 8.53906 203.691 8.8125 204.941 9.35938C206.191 9.89323 207.24 10.6419 208.086 11.6055C208.945 12.569 209.596 13.7083 210.039 15.0234C210.482 16.3255 210.703 17.7513 210.703 19.3008V19.7109C210.703 21.2474 210.482 22.6732 210.039 23.9883C209.596 25.2904 208.945 26.4297 208.086 27.4062C207.24 28.3698 206.198 29.1185 204.961 29.6523C203.724 30.1862 202.305 30.4531 200.703 30.4531C199.102 30.4531 197.676 30.1862 196.426 29.6523C195.189 29.1185 194.141 28.3698 193.281 27.4062C192.435 26.4297 191.79 25.2904 191.348 23.9883C190.905 22.6732 190.684 21.2474 190.684 19.7109ZM196.309 19.3008V19.7109C196.309 20.5964 196.387 21.4232 196.543 22.1914C196.699 22.9596 196.947 23.6367 197.285 24.2227C197.637 24.7956 198.092 25.2448 198.652 25.5703C199.212 25.8958 199.896 26.0586 200.703 26.0586C201.484 26.0586 202.155 25.8958 202.715 25.5703C203.275 25.2448 203.724 24.7956 204.062 24.2227C204.401 23.6367 204.648 22.9596 204.805 22.1914C204.974 21.4232 205.059 20.5964 205.059 19.7109V19.3008C205.059 18.4414 204.974 17.6341 204.805 16.8789C204.648 16.1107 204.395 15.4336 204.043 14.8477C203.704 14.2487 203.255 13.7799 202.695 13.4414C202.135 13.1029 201.458 12.9336 200.664 12.9336C199.87 12.9336 199.193 13.1029 198.633 13.4414C198.086 13.7799 197.637 14.2487 197.285 14.8477C196.947 15.4336 196.699 16.1107 196.543 16.8789C196.387 17.6341 196.309 18.4414 196.309 19.3008Z" fill="black"/>
</svg>
